/* XPM */
static char * bottom_right_active_xpm[] = {
"3 3 6 1",
" 	c None",
".	c #191A1A",
"+	c #151616",
"@	c #151414",
"#	c #0C0B0B",
"$	c #161515",
".+@",
"##$",
"@$ "};
