/* XPM */
static char * bottom_active_xpm[] = {
"16 3 5 1",
" 	c None",
".	c #1A1A19",
"+	c #0C0B0B",
"@	c #161515",
"#	c #151414",
"................",
"++++++++++++++++",
"@##@##@##@##@##@"};
