/* XPM */
static char * close_active_xpm[] = {
"23 24 43 1",
" 	c None",
".	c #121111",
"+	c #363436",
"@	c #1E1E1E",
"#	c #1E1E1D",
"$	c #1E1D1D",
"%	c #1F1E1E",
"&	c #1D1D1D",
"*	c #1D1C1D",
"=	c #1E1D1E",
"-	c #252223",
";	c #2D2729",
">	c #312A2C",
",	c #1D1D1E",
"'	c #1E1D1F",
")	c #292427",
"!	c #3E3237",
"~	c #574149",
"{	c #624851",
"]	c #1E1C1E",
"^	c #262224",
"/	c #3F3237",
"(	c #6D505A",
"_	c #CFBAC0",
":	c #F9F6F7",
"<	c #1F1D1F",
"[	c #2E272A",
"}	c #FFFFFF",
"|	c #624850",
"1	c #574148",
"2	c #3E3236",
"3	c #6C5059",
"4	c #292426",
"5	c #1D1C1C",
"6	c #1E1C1D",
"7	c #252122",
"8	c #2D2628",
"9	c #31292B",
"0	c #1C1C1D",
"a	c #1D1C1E",
"b	c #1C1C1C",
"c	c #1A1B1B",
"d	c #1A1A1A",
".......................",
"+++++++++++++++++++++++",
"@@@@@@@@@@@@@@@@@@@@@@@",
"@@@@@@@@@@@@@@@@@@@@@@@",
"#######################",
"#########$%%%$#########",
"&&&&&&&*=-;>;-=*&&&&&&&",
",,,,,,,')!~{~!)',,,,,,,",
"======]^/(_:_(/^]======",
"======<[~_}}}_~[<======",
"&&&&&&=>|:}}}:|>=&&&&&&",
"&&&&&&=;1_}}}_1;=&&&&&&",
"&&&&&&*-23_:_32-*&&&&&&",
"&&&&&&&=421|124=&&&&&&&",
"55555555678987655555555",
"0000000000aaa0000000000",
"bbbbbbbbbbbbbbbbbbbbbbb",
"bbbbbbbbbbbbbbbbbbbbbbb",
"bbbbbbbbbbbbbbbbbbbbbbb",
".......................",
"+++++++++++++++++++++++",
"ccccccccccccccccccccccc",
"ddddddddddddddddddddddd",
"ddddddddddddddddddddddd"};
