/* XPM */
static char * maximize_active_xpm[] = {
"23 24 40 1",
" 	c None",
".	c #121111",
"+	c #363436",
"@	c #1E1E1E",
"#	c #1E1E1D",
"$	c #1F1F1E",
"%	c #1D1D1D",
"&	c #232323",
"*	c #282828",
"=	c #2B2B2B",
"-	c #1D1D1E",
";	c #1E1E1F",
">	c #252526",
",	c #343435",
"'	c #474748",
")	c #505051",
"!	c #1E1D1E",
"~	c #242324",
"{	c #353435",
"]	c #5B5A5B",
"^	c #C5C5C5",
"/	c #F8F8F8",
"(	c #1F1E1F",
"_	c #292829",
":	c #484748",
"<	c #FFFFFF",
"[	c #505050",
"}	c #474747",
"|	c #343434",
"1	c #5A5A5A",
"2	c #252525",
"3	c #1D1C1C",
"4	c #1E1D1D",
"5	c #232222",
"6	c #282727",
"7	c #2B2A2A",
"8	c #1C1C1D",
"9	c #1C1C1C",
"0	c #1A1B1B",
"a	c #1A1A1A",
".......................",
"+++++++++++++++++++++++",
"@@@@@@@@@@@@@@@@@@@@@@@",
"@@@@@@@@@@@@@@@@@@@@@@@",
"#######################",
"##########$$$##########",
"%%%%%%%%@&*=*&@%%%%%%%%",
"-------;>,')',>;-------",
"!!!!!!!~{]^/^]{~!!!!!!!",
"!!!!!!(_:^<<<^:_(!!!!!!",
"%%%%%%@=[/<<</[=@%%%%%%",
"%%%%%%@*}^<<<^}*@%%%%%%",
"%%%%%%%&|1^/^1|&%%%%%%%",
"%%%%%%%@2|}[}|2@%%%%%%%",
"33333333456765433333333",
"8888888888---8888888888",
"99999999999999999999999",
"99999999999999999999999",
"99999999999999999999999",
".......................",
"+++++++++++++++++++++++",
"00000000000000000000000",
"aaaaaaaaaaaaaaaaaaaaaaa",
"aaaaaaaaaaaaaaaaaaaaaaa"};
