/* XPM */
static char * maximize_inactive_xpm[] = {
"23 24 39 1",
" 	c None",
".	c #121111",
"+	c #363436",
"@	c #1E1E1E",
"#	c #1E1E1D",
"$	c #1F1F1E",
"%	c #1D1D1D",
"&	c #202020",
"*	c #242424",
"=	c #262626",
"-	c #1D1D1E",
";	c #1E1E1F",
">	c #222223",
",	c #2C2C2D",
"'	c #383838",
")	c #3D3D3E",
"!	c #1E1D1E",
"~	c #212021",
"{	c #2D2C2D",
"]	c #444344",
"^	c #848384",
"/	c #A1A1A1",
"(	c #1F1E1F",
"_	c #252425",
":	c #A5A5A5",
"<	c #3D3D3D",
"[	c #838383",
"}	c #2C2C2C",
"|	c #434343",
"1	c #222222",
"2	c #1D1C1C",
"3	c #1E1D1D",
"4	c #201F1F",
"5	c #242323",
"6	c #262525",
"7	c #1C1C1D",
"8	c #1C1C1C",
"9	c #1A1B1B",
"0	c #1A1A1A",
".......................",
"+++++++++++++++++++++++",
"@@@@@@@@@@@@@@@@@@@@@@@",
"@@@@@@@@@@@@@@@@@@@@@@@",
"#######################",
"##########$$$##########",
"%%%%%%%%@&*=*&@%%%%%%%%",
"-------;>,')',>;-------",
"!!!!!!!~{]^/^]{~!!!!!!!",
"!!!!!!(_'^:::^'_(!!!!!!",
"%%%%%%@=</:::/<=@%%%%%%",
"%%%%%%@*'[:::['*@%%%%%%",
"%%%%%%%&}|[/[|}&%%%%%%%",
"%%%%%%%@1}'<'}1@%%%%%%%",
"22222222345654322222222",
"7777777777---7777777777",
"88888888888888888888888",
"88888888888888888888888",
"88888888888888888888888",
".......................",
"+++++++++++++++++++++++",
"99999999999999999999999",
"00000000000000000000000",
"00000000000000000000000"};
