/* XPM */
static char * top_left_inactive_xpm[] = {
"3 24 14 1",
" 	c None",
".	c #121111",
"+	c #363436",
"@	c #1E1E1E",
"#	c #1E1D1D",
"$	c #1D1E1E",
"%	c #1D1D1D",
"&	c #1D1D1C",
"*	c #1D1C1C",
"=	c #1D1C1D",
"-	c #1C1C1C",
";	c #1B1B1B",
">	c #1A1A1B",
",	c #1A1A1A",
" ..",
".++",
".++",
".+@",
".+@",
".+@",
".+@",
".+#",
".+$",
".+%",
".+#",
".+%",
".+%",
".+&",
".+%",
".+&",
".+*",
".+=",
".+-",
".+-",
".+;",
".+;",
".+>",
".+,"};
