/* XPM */
static char * top_right_inactive_xpm[] = {
"3 20 33 1",
" 	c None",
".	c #242527",
"+	c #5F5F5F",
"@	c #4B4B4B",
"#	c #5D5D5D",
"$	c #4A4A4A",
"%	c #5C5C5C",
"&	c #494949",
"*	c #5B5B5B",
"=	c #484848",
"-	c #5A5A5A",
";	c #474747",
">	c #585858",
",	c #464646",
"'	c #575757",
")	c #454545",
"!	c #565656",
"~	c #444444",
"{	c #555555",
"]	c #434343",
"^	c #535353",
"/	c #424242",
"(	c #525252",
"_	c #414141",
":	c #515151",
"<	c #404040",
"[	c #505050",
"}	c #3F3F3F",
"|	c #4E4E4E",
"1	c #3E3E3E",
"2	c #4D4D4D",
"3	c #3D3D3D",
"4	c #4C4C4C",
"...",
"++.",
"@#.",
"$%.",
"&*.",
"=-.",
";>.",
",'.",
")!.",
"~{.",
"]^.",
"]^.",
"/(.",
"_:.",
"<[.",
"}|.",
"12.",
"34.",
"@@.",
".@."};
