/* XPM */
static char * top_left_inactive_xpm[] = {
"3 20 33 1",
" 	c None",
".	c #242527",
"+	c #5F5F5F",
"@	c #5D5D5D",
"#	c #4B4B4B",
"$	c #5C5C5C",
"%	c #4A4A4A",
"&	c #5B5B5B",
"*	c #494949",
"=	c #5A5A5A",
"-	c #484848",
";	c #585858",
">	c #474747",
",	c #575757",
"'	c #464646",
")	c #565656",
"!	c #454545",
"~	c #555555",
"{	c #444444",
"]	c #535353",
"^	c #434343",
"/	c #525252",
"(	c #424242",
"_	c #515151",
":	c #414141",
"<	c #505050",
"[	c #404040",
"}	c #4E4E4E",
"|	c #3F3F3F",
"1	c #4D4D4D",
"2	c #3E3E3E",
"3	c #4C4C4C",
"4	c #3D3D3D",
"...",
".++",
".@#",
".$%",
".&*",
".=-",
".;>",
".,'",
".)!",
".~{",
".]^",
".]^",
"./(",
"._:",
".<[",
".}|",
".12",
".34",
".##",
".#."};
