/* XPM */
static char * bottom_left_inactive_xpm[] = {
"3 3 5 1",
" 	c None",
".	c #151414",
"+	c #282728",
"@	c #191A1A",
"#	c #0C0B0B",
".+@",
".##",
" .."};
