/* XPM */
static char * hide_pressed_xpm[] = {
"23 24 31 1",
" 	c None",
".	c #121111",
"+	c #363436",
"@	c #151415",
"#	c #151515",
"$	c #141515",
"%	c #161516",
"&	c #161616",
"*	c #151616",
"=	c #151516",
"-	c #161615",
";	c #161515",
">	c #171617",
",	c #171717",
"'	c #161717",
")	c #161617",
"!	c #181818",
"~	c #191919",
"{	c #191A1A",
"]	c #1A1A1A",
"^	c #1A1A19",
"/	c #1B1B1B",
"(	c #1B1B1C",
"_	c #1C1C1C",
":	c #1C1D1D",
"<	c #1C1D1C",
"[	c #1C1C1D",
"}	c #1D1D1D",
"|	c #1D1E1D",
"1	c #1D1D1E",
"2	c #1A1B1B",
".......................",
"+++++++++++++++++++++.+",
"@#$$$$$$#############.+",
"#####################.+",
"%&***====****&&---&&;.+",
"&&&&&&&&&&&&&&&&&&&&&.+",
">,',,,,,))),,,,,'''''.+",
",,,,,,,,,,,,,,,,,,,,,.+",
"!!!!!!!!!!!!!!!!!!!!!.+",
"!!!!!!!!!!!!!!!!!!!!!.+",
"~~~~~~~~~~~~~~~~~~~~~.+",
"{{{]]]]]]]]]]]]]^^^]{.+",
"]]]]]]]]]]]]]]]]]]]]].+",
"/////////////////////.+",
"(/////////////((/////.+",
"_____________________.+",
":<<__________[[::<<<<.+",
"}}}}}}}}}}}}}}}}}}}}}.+",
"|||}}}}}}}}}}}111}}}}.+",
"......................+",
"+++++++++++++++++++++++",
"22222222222222222222222",
"]]]]]]]]]]]]]]]]]]]]]]]",
"]]]]]]]]]]]]]]]]]]]]]]]"};
