/* XPM */
static char * maximize_pressed_xpm[] = {
"23 24 27 1",
" 	c None",
".	c #121111",
"+	c #363436",
"@	c #141515",
"#	c #151515",
"$	c #151516",
"%	c #151616",
"&	c #161616",
"*	c #161615",
"=	c #161515",
"-	c #171717",
";	c #161617",
">	c #161717",
",	c #181818",
"'	c #191919",
")	c #1A1A1A",
"!	c #1A1A19",
"~	c #191A1A",
"{	c #1B1B1B",
"]	c #1B1B1C",
"^	c #1C1C1C",
"/	c #1C1C1D",
"(	c #1C1D1D",
"_	c #1C1D1C",
":	c #1D1D1D",
"<	c #1D1D1E",
"[	c #1A1B1B",
".......................",
"+.+++++++++++++++++++.+",
"+.@@##@@#############.+",
"+.###################.+",
"+.$$$%$$$%%%%&&***&&=.+",
"+.&&&&&&&&&&&&&&&&&&&.+",
"+.--;;--;;;----->>>>>.+",
"+.-------------------.+",
"+.,,,,,,,,,,,,,,,,,,,.+",
"+.,,,,,,,,,,,,,,,,,,,.+",
"+.'''''''''''''''''''.+",
"+.))))))))))))))!!!)~.+",
"+.))))))))))))))))))).+",
"+.{{{{{{{{{{{{{{{{{{{.+",
"+.{{{{{{{{{{{{]]{{{{{.+",
"+.^^^^^^^^^^^^^^^^^^^.+",
"+.^^^^^^^^^^^//((____.+",
"+.:::::::::::::::::::.+",
"+.::::::::::::<<<::::.+",
"+.....................+",
"+++++++++++++++++++++++",
"[[[[[[[[[[[[[[[[[[[[[[[",
")))))))))))))))))))))))",
")))))))))))))))))))))))"};
