/* XPM */
static char * right_inactive_xpm[] = {
"3 12 5 1",
" 	c None",
".	c #191A1A",
"+	c #151616",
"@	c #141313",
"#	c #151414",
".+@",
".+#",
".+@",
".+@",
".+#",
".+@",
".+@",
".+#",
".+@",
".+@",
".+#",
".+@"};
