/* XPM */
static char * title_4_active_xpm[] = {
"4 24 15 1",
" 	c None",
".	c #121111",
"+	c #363436",
"@	c #1E1E1E",
"#	c #1E1E1D",
"$	c #1D1D1D",
"%	c #1D1D1E",
"&	c #1E1D1E",
"*	c #1D1C1C",
"=	c #1C1C1D",
"-	c #1C1C1C",
";	c #1C1B1B",
">	c #1B1B1B",
",	c #1A1B1B",
"'	c #1A1A1A",
"....",
"+++.",
"@@+.",
"@@+.",
"##+.",
"##+.",
"$$+.",
"%%+.",
"&&+.",
"&&+.",
"$$+.",
"$$+.",
"$$+.",
"$$+.",
"**+.",
"==+.",
"--+.",
"--+.",
"--+.",
";;+.",
">>++",
",,,,",
"''''",
"''''"};
