/* XPM */
static char * top_right_inactive_xpm[] = {
"3 24 17 1",
" 	c None",
".	c #121111",
"+	c #363436",
"@	c #1A1919",
"#	c #1A1817",
"$	c #181716",
"%	c #191817",
"&	c #151414",
"*	c #171616",
"=	c #161515",
"-	c #141313",
";	c #1B1B1B",
">	c #171717",
",	c #1A1A1B",
"'	c #161617",
")	c #1A1A1A",
"!	c #161616",
".. ",
"+.@",
"+.#",
"+.@",
"+.$",
"+.$",
"+.%",
"+.&",
"+.&",
"+.*",
"+.&",
"+.&",
"+.=",
"+.&",
"+.&",
"+.=",
"+.&",
"+.&",
"+.=",
"..-",
"++-",
";>&",
",'-",
")!-"};
