/* XPM */
static char * left_active_xpm[] = {
"3 20 3 1",
" 	c None",
".	c #242527",
"+	c #4B4B4B",
".+.",
".+.",
".+.",
".+.",
".+.",
".+.",
".+.",
".+.",
".+.",
".+.",
".+.",
".+.",
".+.",
".+.",
".+.",
".+.",
".+.",
".+.",
".+.",
".+."};
