/* XPM */
static char * title_2_active_xpm[] = {
"8 20 18 1",
" 	c None",
".	c #242527",
"+	c #5F5F5F",
"@	c #4B4B4B",
"#	c #4A4A4A",
"$	c #494949",
"%	c #484848",
"&	c #474747",
"*	c #464646",
"=	c #454545",
"-	c #444444",
";	c #434343",
">	c #424242",
",	c #414141",
"'	c #404040",
")	c #3F3F3F",
"!	c #3E3E3E",
"~	c #3D3D3D",
"........",
"++++++++",
"@@@@@@@@",
"########",
"$$$$$$$$",
"%%%%%%%%",
"&&&&&&&&",
"********",
"========",
"--------",
";;;;;;;;",
";;;;;;;;",
">>>>>>>>",
",,,,,,,,",
"''''''''",
"))))))))",
"!!!!!!!!",
"~~~~~~~~",
"@@@@@@@@",
"........"};
